<svg xmlns="http://www.w3.org/2000/svg" fill="none" viewBox="0 0 299 62" height="62" width="299">
<g clip-path="url(#clip0_3450_13387)">
<path fill="#4E4F51" d="M32.41 4.1599C28.52 2.1599 23.23 1.1499 16.55 1.1499H0V50.1899H15.54C19.9 50.1899 22.85 50.0699 24.4 49.8199C25.95 49.5699 27.65 49.0899 29.5 48.3599C32.66 47.1599 35.44 45.3999 37.83 43.0499C40.17 40.7799 41.98 38.1399 43.24 35.1399C44.51 32.1399 45.14 28.9999 45.14 25.7199C45.14 21.1299 43.99 16.8799 41.69 12.9899C39.39 9.0999 36.3 6.1499 32.41 4.1499V4.1599ZM32.66 38.6699C31.58 39.7499 30.39 40.6599 29.09 41.3899C27.79 42.1199 26.17 42.7399 24.22 43.2199C22.27 43.6999 19.54 43.9399 16.03 43.9399H7.03V7.4099H15.82C19.2 7.4099 21.64 7.5399 23.17 7.7999C24.69 8.0599 26.3 8.5899 28 9.3799C29.7 10.1799 31.21 11.1999 32.52 12.4399C36.08 15.7699 37.86 20.0699 37.86 25.3399C37.86 30.6099 36.13 35.1499 32.66 38.6599V38.6699Z"></path>
<path fill="#4E4F51" d="M86.3016 29.0302C86.3016 32.9002 86.0016 35.6302 85.3916 37.2202C84.7816 38.8102 83.7816 40.2002 82.4016 41.3702C79.7816 43.5502 76.3816 44.6402 72.2016 44.6402C69.2716 44.6402 66.7316 44.1002 64.5716 43.0102C62.4116 41.9202 60.8116 40.4702 59.7516 38.6702C58.7016 36.8702 58.1716 33.6502 58.1716 29.0402V5.61016C58.1716 3.15016 56.1816 1.16016 53.7216 1.16016H51.1016V28.9702C51.1016 32.9302 51.3616 35.8402 51.8916 37.6902C52.4216 39.5402 53.0916 41.1102 53.8916 42.3802C54.7016 43.6602 55.6916 44.8102 56.8616 45.8402C60.7316 49.1702 65.8616 50.8302 72.2616 50.8302C78.6616 50.8302 83.6316 49.1502 87.5216 45.8002C88.6916 44.7902 89.6816 43.6502 90.4916 42.3702C91.3016 41.0902 91.9816 39.4902 92.5316 37.5702C93.0816 35.6502 93.3616 32.8002 93.3616 29.0302V1.16016H90.7416C88.2816 1.16016 86.2916 3.15016 86.2916 5.61016V29.0402L86.3016 29.0302Z"></path>
<path fill="#4E4F51" d="M167.5 3.8399L153.78 35.6399L140.06 3.8399C139.36 2.2099 137.75 1.1499 135.97 1.1499H131.82L152.99 50.1899H154.58L175.74 1.1599H171.59C169.81 1.1599 168.21 2.2199 167.5 3.8499V3.8399Z"></path>
<path fill="#79874F" d="M217.488 50.1996C219.948 50.1996 221.938 48.2096 221.938 45.7496V1.69963C221.938 1.52963 221.858 1.37963 221.718 1.27963L221.498 1.12963C221.378 1.04963 221.238 1.02963 221.098 1.05963L215.618 2.47963C215.498 2.50963 215.398 2.57963 215.328 2.68963L215.178 2.91963C215.098 3.03963 215.068 3.19963 215.118 3.33963C215.168 3.47963 215.268 3.59963 215.408 3.65963C216.848 4.24963 217.498 5.93963 217.498 9.11963V50.1896L217.488 50.1996Z"></path>
<path fill="#79874F" d="M234.409 11.0495C236.119 11.0495 237.459 9.70953 237.459 7.99953C237.459 6.28953 236.119 5.01953 234.409 5.01953C232.699 5.01953 231.359 6.32953 231.359 7.99953C231.359 9.66953 232.699 11.0495 234.409 11.0495Z"></path>
<path fill="#79874F" d="M232.859 50.1996C235.319 50.1996 237.309 48.2096 237.309 45.7496V15.1996C237.309 15.0296 237.229 14.8796 237.089 14.7796L236.869 14.6296C236.749 14.5496 236.609 14.5296 236.469 14.5596L230.989 15.9796C230.869 16.0096 230.769 16.0796 230.699 16.1896L230.549 16.4196C230.469 16.5396 230.449 16.6996 230.489 16.8396C230.529 16.9796 230.639 17.0996 230.779 17.1596C232.219 17.7496 232.869 19.4396 232.869 22.6196V50.1896L232.859 50.1996Z"></path>
<path fill="#79874F" d="M248.24 50.1998C250.7 50.1998 252.69 48.2098 252.69 45.7498V16.5998H262.31C262.59 16.5998 262.81 16.3798 262.81 16.0998V15.1998C262.81 14.9198 262.59 14.6998 262.31 14.6998H252.69V12.1298C252.69 5.72977 255.92 1.90977 261.34 1.90977C263.56 1.90977 266.2 2.49977 266.24 5.31977C266.26 6.65977 267.37 7.79977 268.7 7.75977C270.03 7.71977 270.99 6.68977 270.99 5.38977C270.99 2.21977 266.02 0.00976562 261.57 0.00976562C253.6 0.00976562 248.24 4.87977 248.24 12.1298V14.6998H244.84C244.56 14.6998 244.34 14.9198 244.34 15.1998V16.0998C244.34 16.3798 244.56 16.5998 244.84 16.5998H248.24V50.1998Z"></path>
<path fill="#79874F" d="M298.44 37.4298L298.21 37.2798C298.08 37.1898 297.92 37.1698 297.77 37.2198C297.62 37.2698 297.51 37.3798 297.46 37.5298C295.76 42.4398 291.88 48.2898 283.01 48.2898C274.14 48.2898 268.74 41.5998 268.74 31.2398C268.74 20.8798 273.84 14.1898 281.44 14.1898C289.98 14.1898 291.59 21.6298 291.86 25.3598L271.23 26.0198C271.05 26.0198 270.88 26.1298 270.8 26.2898C270.72 26.4498 270.73 26.6398 270.83 26.7998L270.98 27.0298C271.07 27.1698 271.23 27.2498 271.4 27.2498H296.15C296.43 27.2498 296.65 27.0298 296.65 26.7498C296.65 19.7498 291.32 12.2998 281.45 12.2998C271.58 12.2998 264 20.4498 264 31.2498C264 42.0498 271.65 50.1998 282.2 50.1998C292.75 50.1998 297.21 42.5598 298.65 37.9998C298.72 37.7898 298.64 37.5598 298.45 37.4298H298.44Z"></path>
<path fill="#4E4F51" d="M139.332 50.2002L136.732 46.6902C135.702 45.2902 134.332 43.1902 132.622 40.4102C129.912 35.9902 127.802 32.8902 126.302 31.1102C124.802 29.3302 123.272 27.9302 121.702 26.9002C124.372 25.8702 126.422 24.3102 127.842 22.2302C129.272 20.1502 129.982 17.6802 129.982 14.8202C129.982 10.6302 128.522 7.31016 125.612 4.85016C122.702 2.39016 118.762 1.16016 113.802 1.16016H101.512V50.2002H104.082C106.542 50.2002 108.532 48.2102 108.532 45.7502V28.8602H110.362C112.662 28.8602 114.292 29.1202 115.262 29.6502C116.232 30.1802 117.322 31.0302 118.532 32.2302C119.742 33.4202 121.062 35.0202 122.512 37.0402L124.862 40.8702L127.032 44.4502L128.402 46.3802C128.612 46.6602 128.752 46.8602 128.822 46.9802L130.962 50.2102C135.082 57.2202 142.692 61.9202 151.402 61.9202C160.112 61.9202 167.752 57.1402 171.852 50.0702L166.412 46.5802C164.162 52.4202 158.502 56.5702 151.872 56.5702C146.722 56.5702 142.152 54.0702 139.312 50.2102L139.332 50.2002ZM118.532 21.6902C117.212 22.3002 114.772 22.6002 111.212 22.6002H108.542V7.12016H110.652C114.092 7.12016 116.552 7.38016 118.042 7.89016C119.532 8.40016 120.682 9.29016 121.502 10.5402C122.322 11.7902 122.732 13.1902 122.732 14.7402C122.732 16.2902 122.362 17.7102 121.622 18.9402C120.882 20.1702 119.852 21.0902 118.532 21.7002V21.6902Z"></path>
<path fill="#79874F" d="M191.82 1.16016H185.93L166.42 46.5802C163.79 52.4302 157.92 56.5102 151.1 56.5402C146.27 56.3002 142.01 53.8702 139.32 50.2102C142.97 55.3202 148.94 58.6502 155.7 58.6502C160.26 58.6502 164.47 57.1302 167.84 54.5602C170.24 52.7302 172.06 50.2502 173.24 47.4602L173.26 47.4102L178.22 35.6602H199.55L204.53 47.4702C205.23 49.1202 206.84 50.1902 208.63 50.1902H212.86L191.82 1.16016ZM180.99 29.4202L188.85 11.6602L196.74 29.4202H180.98H180.99Z"></path>
</g>
<defs>
<clipPath id="clip0_3450_13387">
<rect fill="white" height="62" width="299"></rect>
</clipPath>
</defs>
</svg>
